<svg width="30" height="27" viewBox="0 0 30 27" fill="none" xmlns="http://www.w3.org/2000/svg">
<path d="M10.2624 4.54688H15.2345C16.3193 4.54688 17.2384 4.73521 17.9917 5.11189C18.7451 5.48856 19.3176 6.04604 19.7094 6.78432C20.1086 7.51507 20.3083 8.42285 20.3083 9.50767C20.3083 10.3288 20.184 11.052 19.9354 11.6773C19.6943 12.3026 19.344 12.8299 18.8844 13.2593C18.4249 13.6812 17.8712 14.0089 17.2233 14.2425L16.421 14.6832H12.2173L12.206 12.3779H15.1667C15.7015 12.3779 16.146 12.2612 16.5001 12.0276C16.8542 11.7941 17.1178 11.4701 17.2911 11.0558C17.4719 10.6415 17.5623 10.1706 17.5623 9.64328C17.5623 9.07826 17.4832 8.58859 17.325 8.17425C17.1668 7.75237 16.9182 7.42843 16.5792 7.20243C16.2402 6.96889 15.7919 6.85212 15.2345 6.85212H13.0083V21H10.2624V4.54688ZM17.9239 21L14.7938 13.6097L17.6527 13.5984L20.862 20.8531V21H17.9239Z" fill="black"/>
<path d="M5.93262 2.95354L6.44113 4.52427C5.83845 4.78795 5.43164 5.25502 5.2207 5.9255C5.00977 6.58845 4.9043 7.34933 4.9043 8.20815V10.5247C4.9043 11.2856 4.76116 11.9749 4.47489 12.5926C4.18862 13.2028 3.73661 13.6925 3.11886 14.0617C2.50865 14.4233 1.7101 14.6041 0.723214 14.6041V13.022C1.34096 13.022 1.78544 12.796 2.05664 12.344C2.32785 11.892 2.46345 11.2856 2.46345 10.5247V8.20815C2.46345 7.41713 2.56515 6.67885 2.76855 5.9933C2.97949 5.30022 3.33733 4.69378 3.84208 4.17397C4.34682 3.64662 5.04367 3.23982 5.93262 2.95354ZM6.42983 23.5086L5.93262 25.102C5.04367 24.8082 4.34682 24.3976 3.84208 23.8703C3.33733 23.3504 2.97949 22.744 2.76855 22.0509C2.56515 21.3654 2.46345 20.6271 2.46345 19.8361V17.5308C2.46345 17.0186 2.40318 16.5778 2.28265 16.2087C2.16211 15.832 1.97377 15.542 1.71763 15.3386C1.4615 15.1352 1.13002 15.0335 0.723214 15.0335V13.4402C1.7101 13.4402 2.50865 13.6247 3.11886 13.9939C3.73661 14.3555 4.18862 14.8451 4.47489 15.4629C4.76116 16.0731 4.9043 16.7624 4.9043 17.5308V19.8361C4.9043 20.4162 4.94573 20.951 5.0286 21.4407C5.119 21.9304 5.2772 22.3523 5.50321 22.7063C5.72921 23.0679 6.03809 23.3354 6.42983 23.5086Z" fill="black"/>
<path d="M24.0674 2.95354L23.5589 4.52427C24.1616 4.78795 24.5684 5.25502 24.7793 5.9255C24.9902 6.58845 25.0957 7.34933 25.0957 8.20815V10.5247C25.0957 11.2856 25.2388 11.9749 25.5251 12.5926C25.8114 13.2028 26.2634 13.6925 26.8811 14.0617C27.4914 14.4233 28.2899 14.6041 29.2768 14.6041V13.022C28.659 13.022 28.2146 12.796 27.9434 12.344C27.6722 11.892 27.5366 11.2856 27.5366 10.5247V8.20815C27.5366 7.41713 27.4348 6.67885 27.2314 5.9933C27.0205 5.30022 26.6627 4.69378 26.1579 4.17397C25.6532 3.64662 24.9563 3.23982 24.0674 2.95354ZM23.5702 23.5086L24.0674 25.102C24.9563 24.8082 25.6532 24.3976 26.1579 23.8703C26.6627 23.3504 27.0205 22.744 27.2314 22.0509C27.4348 21.3654 27.5366 20.6271 27.5366 19.8361V17.5308C27.5366 17.0186 27.5968 16.5778 27.7174 16.2087C27.8379 15.832 28.0262 15.542 28.2824 15.3386C28.5385 15.1352 28.87 15.0335 29.2768 15.0335V13.4402C28.2899 13.4402 27.4914 13.6247 26.8811 13.9939C26.2634 14.3555 25.8114 14.8451 25.5251 15.4629C25.2388 16.0731 25.0957 16.7624 25.0957 17.5308V19.8361C25.0957 20.4162 25.0543 20.951 24.9714 21.4407C24.881 21.9304 24.7228 22.3523 24.4968 22.7063C24.2708 23.0679 23.9619 23.3354 23.5702 23.5086Z" fill="black"/>
</svg>
