<svg width="30" height="27" viewBox="0 0 30 27" fill="none" xmlns="http://www.w3.org/2000/svg">
<path d="M10.2624 4.54688H15.2345C16.3193 4.54688 17.2384 4.73521 17.9917 5.11189C18.7451 5.48856 19.3176 6.04604 19.7094 6.78432C20.1086 7.51507 20.3083 8.42285 20.3083 9.50767C20.3083 10.3288 20.184 11.052 19.9354 11.6773C19.6943 12.3026 19.344 12.8299 18.8844 13.2593C18.4249 13.6812 17.8712 14.0089 17.2233 14.2425L16.421 14.6832H12.2173L12.206 12.3779H15.1667C15.7015 12.3779 16.146 12.2612 16.5001 12.0276C16.8542 11.7941 17.1178 11.4701 17.2911 11.0558C17.4719 10.6415 17.5623 10.1706 17.5623 9.64328C17.5623 9.07826 17.4832 8.58859 17.325 8.17425C17.1668 7.75237 16.9182 7.42843 16.5792 7.20243C16.2402 6.96889 15.7919 6.85212 15.2345 6.85212H13.0083V21H10.2624V4.54688ZM17.9239 21L14.7938 13.6097L17.6527 13.5984L20.862 20.8531V21H17.9239Z" fill="#A5F3B6"/>
<path d="M10.2624 4.54688V3.54688H9.26236V4.54688H10.2624ZM19.7094 6.78432L18.8259 7.25307L18.8318 7.26381L19.7094 6.78432ZM19.9354 11.6773L19.0061 11.3078L19.0023 11.3176L19.9354 11.6773ZM18.8844 13.2593L19.5607 13.996L19.5672 13.99L18.8844 13.2593ZM17.2233 14.2425L16.8842 13.3017L16.8105 13.3283L16.7419 13.366L17.2233 14.2425ZM16.421 14.6832V15.6832H16.6776L16.9024 15.5597L16.421 14.6832ZM12.2173 14.6832L11.2173 14.6881L11.2222 15.6832H12.2173V14.6832ZM12.206 12.3779V11.3779H11.2011L11.206 12.3828L12.206 12.3779ZM17.2911 11.0558L16.3746 10.6559L16.3715 10.6629L16.3685 10.67L17.2911 11.0558ZM17.325 8.17425L16.3887 8.52538L16.3908 8.53095L17.325 8.17425ZM16.5792 7.20243L16.0119 8.02594L16.0182 8.03025L16.0245 8.03448L16.5792 7.20243ZM13.0083 6.85212V5.85212H12.0083V6.85212H13.0083ZM13.0083 21V22H14.0083V21H13.0083ZM10.2624 21H9.26236V22H10.2624V21ZM17.9239 21L17.0031 21.39L17.2615 22H17.9239V21ZM14.7938 13.6097L14.7898 12.6097L13.2867 12.6156L13.8729 13.9997L14.7938 13.6097ZM17.6527 13.5984L18.5672 13.1938L18.3027 12.5958L17.6488 12.5984L17.6527 13.5984ZM20.862 20.8531H21.862V20.6418L21.7765 20.4485L20.862 20.8531ZM20.862 21V22H21.862V21H20.862ZM10.2624 5.54688H15.2345V3.54688H10.2624V5.54688ZM15.2345 5.54688C16.2073 5.54688 16.9641 5.71612 17.5445 6.00631L18.4389 4.21746C17.5126 3.75431 16.4313 3.54688 15.2345 3.54688V5.54688ZM17.5445 6.00631C18.1133 6.2907 18.5326 6.70011 18.826 7.25304L20.5927 6.3156C20.1026 5.39197 19.3769 4.68642 18.4389 4.21746L17.5445 6.00631ZM18.8318 7.26381C19.13 7.80965 19.3083 8.5412 19.3083 9.50767H21.3083C21.3083 8.3045 21.0872 7.22049 20.5869 6.30483L18.8318 7.26381ZM19.3083 9.50767C19.3083 10.2294 19.1989 10.8229 19.0061 11.3079L20.8646 12.0468C21.169 11.2811 21.3083 10.4283 21.3083 9.50767H19.3083ZM19.0023 11.3176C18.8119 11.8113 18.5437 12.2091 18.2017 12.5287L19.5672 13.99C20.1443 13.4508 20.5766 12.7938 20.8684 12.037L19.0023 11.3176ZM18.2082 12.5227C17.8561 12.8459 17.4203 13.1085 16.8842 13.3017L17.5624 15.1832C18.3221 14.9094 18.9937 14.5165 19.5607 13.996L18.2082 12.5227ZM16.7419 13.366L15.9395 13.8067L16.9024 15.5597L17.7047 15.1189L16.7419 13.366ZM16.421 13.6832H12.2173V15.6832H16.421V13.6832ZM13.2173 14.6783L13.206 12.373L11.206 12.3828L11.2173 14.6881L13.2173 14.6783ZM12.206 13.3779H15.1667V11.3779H12.206V13.3779ZM15.1667 13.3779C15.8463 13.3779 16.4953 13.2287 17.0507 12.8624L15.9495 11.1929C15.7967 11.2936 15.5568 11.3779 15.1667 11.3779V13.3779ZM17.0507 12.8624C17.5806 12.5129 17.9685 12.0279 18.2137 11.4416L16.3685 10.67C16.2671 10.9124 16.1277 11.0753 15.9495 11.1929L17.0507 12.8624ZM18.2076 11.4557C18.4519 10.896 18.5623 10.2856 18.5623 9.64328H16.5623C16.5623 10.0557 16.4919 10.3869 16.3746 10.6559L18.2076 11.4557ZM18.5623 9.64328C18.5623 8.98828 18.471 8.37222 18.2592 7.81755L16.3908 8.53095C16.4954 8.80496 16.5623 9.16825 16.5623 9.64328H18.5623ZM18.2613 7.82312C18.0377 7.22669 17.6658 6.72499 17.1339 6.37038L16.0245 8.03448C16.1706 8.13187 16.2959 8.27806 16.3887 8.52537L18.2613 7.82312ZM17.1465 6.37892C16.5909 5.99618 15.9244 5.85212 15.2345 5.85212V7.85212C15.6595 7.85212 15.8895 7.9416 16.0119 8.02594L17.1465 6.37892ZM15.2345 5.85212H13.0083V7.85212H15.2345V5.85212ZM12.0083 6.85212V21H14.0083V6.85212H12.0083ZM13.0083 20H10.2624V22H13.0083V20ZM11.2624 21V4.54688H9.26236V21H11.2624ZM18.8447 20.61L15.7146 13.2196L13.8729 13.9997L17.0031 21.39L18.8447 20.61ZM14.7977 14.6096L17.6567 14.5983L17.6488 12.5984L14.7898 12.6097L14.7977 14.6096ZM16.7382 14.0029L19.9475 21.2576L21.7765 20.4485L18.5672 13.1938L16.7382 14.0029ZM19.862 20.8531V21H21.862V20.8531H19.862ZM20.862 20H17.9239V22H20.862V20Z" fill="black"/>
<path d="M5.93262 2.95354L6.44113 4.52427C5.83845 4.78795 5.43164 5.25502 5.2207 5.9255C5.00977 6.58845 4.9043 7.34933 4.9043 8.20815V10.5247C4.9043 11.2856 4.76116 11.9749 4.47489 12.5926C4.18862 13.2028 3.73661 13.6925 3.11886 14.0617C2.50865 14.4233 1.7101 14.6041 0.723214 14.6041V13.022C1.34096 13.022 1.78544 12.796 2.05664 12.344C2.32785 11.892 2.46345 11.2856 2.46345 10.5247V8.20815C2.46345 7.41713 2.56515 6.67885 2.76855 5.9933C2.97949 5.30022 3.33733 4.69378 3.84208 4.17397C4.34682 3.64662 5.04367 3.23982 5.93262 2.95354ZM6.42983 23.5086L5.93262 25.102C5.04367 24.8082 4.34682 24.3976 3.84208 23.8703C3.33733 23.3504 2.97949 22.744 2.76855 22.0509C2.56515 21.3654 2.46345 20.6271 2.46345 19.8361V17.5308C2.46345 17.0186 2.40318 16.5778 2.28265 16.2087C2.16211 15.832 1.97377 15.542 1.71763 15.3386C1.4615 15.1352 1.13002 15.0335 0.723214 15.0335V13.4402C1.7101 13.4402 2.50865 13.6247 3.11886 13.9939C3.73661 14.3555 4.18862 14.8451 4.47489 15.4629C4.76116 16.0731 4.9043 16.7624 4.9043 17.5308V19.8361C4.9043 20.4162 4.94573 20.951 5.0286 21.4407C5.119 21.9304 5.2772 22.3523 5.50321 22.7063C5.72921 23.0679 6.03809 23.3354 6.42983 23.5086Z" fill="#A5F3B6"/>
<path d="M5.93262 2.95354L6.884 2.64554L6.57648 1.69563L5.62609 2.00168L5.93262 2.95354ZM6.44113 4.52427L6.84195 5.44043L7.67135 5.07757L7.39251 4.21627L6.44113 4.52427ZM5.2207 5.9255L6.17363 6.22871L6.17461 6.22561L5.2207 5.9255ZM4.47489 12.5926L5.38022 13.0174L5.3822 13.0131L4.47489 12.5926ZM3.11886 14.0617L3.62867 14.922L3.63182 14.9201L3.11886 14.0617ZM0.723214 14.6041H-0.276786V15.6041H0.723214V14.6041ZM0.723214 13.022V12.022H-0.276786V13.022H0.723214ZM2.76855 5.9933L1.81186 5.70214L1.80986 5.70886L2.76855 5.9933ZM3.84208 4.17397L4.55952 4.87062L4.56449 4.86543L3.84208 4.17397ZM6.42983 23.5086L7.38443 23.8065L7.65017 22.955L6.83433 22.5941L6.42983 23.5086ZM5.93262 25.102L5.6188 26.0515L6.5843 26.3706L6.88722 25.3999L5.93262 25.102ZM3.84208 23.8703L4.56451 23.1788L4.5595 23.1736L3.84208 23.8703ZM2.76855 22.0509L1.80984 22.3354L1.81188 22.3421L2.76855 22.0509ZM2.28264 16.2087L1.3302 16.5135L1.33204 16.5191L2.28264 16.2087ZM0.723214 15.0335H-0.276786V16.0335H0.723214V15.0335ZM0.723214 13.4402V12.4402H-0.276786V13.4402H0.723214ZM3.11886 13.9939L2.60126 14.8495L2.60745 14.8532L2.61368 14.8569L3.11886 13.9939ZM4.47489 15.4629L3.56757 15.8834L3.56956 15.8876L4.47489 15.4629ZM5.0286 21.4407L4.04262 21.6076L4.04386 21.6149L4.04522 21.6223L5.0286 21.4407ZM5.50321 22.7063L6.35125 22.1763L6.34613 22.1683L5.50321 22.7063ZM4.98123 3.26155L5.48974 4.83228L7.39251 4.21627L6.884 2.64554L4.98123 3.26155ZM6.04031 3.60812C5.15306 3.99629 4.55772 4.70069 4.2668 5.6254L6.17461 6.22561C6.30556 5.80936 6.52383 5.57961 6.84195 5.44043L6.04031 3.60812ZM4.26778 5.6223C4.01933 6.40314 3.9043 7.26958 3.9043 8.20815H5.9043C5.9043 7.42909 6.0002 6.77376 6.17363 6.22871L4.26778 5.6223ZM3.9043 8.20815V10.5247H5.9043V8.20815H3.9043ZM3.9043 10.5247C3.9043 11.1575 3.78596 11.7009 3.56758 12.1722L5.3822 13.0131C5.73636 12.2489 5.9043 11.4136 5.9043 10.5247H3.9043ZM3.56956 12.1679C3.37377 12.5853 3.06474 12.9291 2.60591 13.2032L3.63182 14.9201C4.40848 14.456 5.00346 13.8204 5.38021 13.0174L3.56956 12.1679ZM2.60906 13.2014C2.2021 13.4425 1.59771 13.6041 0.723214 13.6041V15.6041C1.82249 15.6041 2.8152 15.404 3.62866 14.922L2.60906 13.2014ZM1.72321 14.6041V13.022H-0.276786V14.6041H1.72321ZM0.723214 14.022C1.62091 14.022 2.42831 13.6682 2.91413 12.8585L1.19915 11.8295C1.14256 11.9238 1.06101 12.022 0.723214 12.022V14.022ZM2.91413 12.8585C3.31108 12.1969 3.46345 11.3911 3.46345 10.5247H1.46345C1.46345 11.1801 1.34461 11.5871 1.19915 11.8295L2.91413 12.8585ZM3.46345 10.5247V8.20815H1.46345V10.5247H3.46345ZM3.46345 8.20815C3.46345 7.50333 3.55397 6.86175 3.72725 6.27775L1.80986 5.70886C1.57633 6.49595 1.46345 7.33093 1.46345 8.20815H3.46345ZM3.72523 6.28447C3.88982 5.74367 4.16563 5.27623 4.5595 4.8706L3.12465 3.47734C2.50904 4.11132 2.06917 4.85677 1.81188 5.70214L3.72523 6.28447ZM4.56449 4.86543C4.92671 4.48699 5.46523 4.15463 6.23915 3.9054L5.62609 2.00168C4.62211 2.325 3.76693 2.80626 3.11966 3.48251L4.56449 4.86543ZM5.47523 23.2108L4.97802 24.8041L6.88722 25.3999L7.38443 23.8065L5.47523 23.2108ZM6.24643 24.1525C5.47004 23.8959 4.92872 23.5593 4.56449 23.1788L3.11966 24.5617C3.76492 25.2359 4.61729 25.7205 5.6188 26.0515L6.24643 24.1525ZM4.5595 23.1736C4.16563 22.768 3.88982 22.3006 3.72523 21.7598L1.81188 22.3421C2.06917 23.1875 2.50904 23.9329 3.12465 24.5669L4.5595 23.1736ZM3.72725 21.7665C3.55397 21.1825 3.46345 20.5409 3.46345 19.8361H1.46345C1.46345 20.7133 1.57633 21.5483 1.80986 22.3354L3.72725 21.7665ZM3.46345 19.8361V17.5308H1.46345V19.8361H3.46345ZM3.46345 17.5308C3.46345 16.9447 3.39506 16.3938 3.23325 15.8983L1.33204 16.5191C1.41131 16.7619 1.46345 17.0924 1.46345 17.5308H3.46345ZM3.23507 15.9039C3.06695 15.3786 2.78067 14.9058 2.33952 14.5555L1.09575 16.1217C1.16687 16.1782 1.25727 16.2855 1.33022 16.5135L3.23507 15.9039ZM2.33952 14.5555C1.86693 14.1802 1.29949 14.0335 0.723214 14.0335V16.0335C0.960553 16.0335 1.05607 16.0902 1.09575 16.1217L2.33952 14.5555ZM1.72321 15.0335V13.4402H-0.276786V15.0335H1.72321ZM0.723214 14.4402C1.59472 14.4402 2.19604 14.6044 2.60126 14.8495L3.63646 13.1382C2.82126 12.6451 1.82548 12.4402 0.723214 12.4402V14.4402ZM2.61368 14.8569C3.06496 15.121 3.37162 15.4605 3.56758 15.8834L5.3822 15.0424C5.00561 14.2298 4.40826 13.5899 3.62404 13.1308L2.61368 14.8569ZM3.56956 15.8876C3.7853 16.3475 3.9043 16.8886 3.9043 17.5308H5.9043C5.9043 16.6362 5.73702 15.7987 5.38021 15.0382L3.56956 15.8876ZM3.9043 17.5308V19.8361H5.9043V17.5308H3.9043ZM3.9043 19.8361C3.9043 20.463 3.94902 21.0545 4.04262 21.6076L6.01458 21.2738C5.94244 20.8476 5.9043 20.3693 5.9043 19.8361H3.9043ZM4.04522 21.6223C4.15477 22.2156 4.35333 22.7635 4.66029 23.2444L6.34613 22.1683C6.20108 21.941 6.08324 21.6451 6.01198 21.2592L4.04522 21.6223ZM4.65521 23.2363C4.98776 23.7684 5.45149 24.1694 6.02532 24.4232L6.83433 22.5941C6.62468 22.5014 6.47066 22.3675 6.35121 22.1763L4.65521 23.2363Z" fill="black"/>
<path d="M24.0674 2.95354L23.5589 4.52427C24.1616 4.78795 24.5684 5.25502 24.7793 5.9255C24.9902 6.58845 25.0957 7.34933 25.0957 8.20815V10.5247C25.0957 11.2856 25.2388 11.9749 25.5251 12.5926C25.8114 13.2028 26.2634 13.6925 26.8811 14.0617C27.4914 14.4233 28.2899 14.6041 29.2768 14.6041V13.022C28.659 13.022 28.2146 12.796 27.9434 12.344C27.6722 11.892 27.5366 11.2856 27.5366 10.5247V8.20815C27.5366 7.41713 27.4348 6.67885 27.2314 5.9933C27.0205 5.30022 26.6627 4.69378 26.1579 4.17397C25.6532 3.64662 24.9563 3.23982 24.0674 2.95354ZM23.5702 23.5086L24.0674 25.102C24.9563 24.8082 25.6532 24.3976 26.1579 23.8703C26.6627 23.3504 27.0205 22.744 27.2314 22.0509C27.4348 21.3654 27.5366 20.6271 27.5366 19.8361V17.5308C27.5366 17.0186 27.5968 16.5778 27.7174 16.2087C27.8379 15.832 28.0262 15.542 28.2824 15.3386C28.5385 15.1352 28.87 15.0335 29.2768 15.0335V13.4402C28.2899 13.4402 27.4914 13.6247 26.8811 13.9939C26.2634 14.3555 25.8114 14.8451 25.5251 15.4629C25.2388 16.0731 25.0957 16.7624 25.0957 17.5308V19.8361C25.0957 20.4162 25.0543 20.951 24.9714 21.4407C24.881 21.9304 24.7228 22.3523 24.4968 22.7063C24.2708 23.0679 23.9619 23.3354 23.5702 23.5086Z" fill="#A5F3B6"/>
<path d="M24.0674 2.95354L23.116 2.64554L23.4235 1.69563L24.3739 2.00168L24.0674 2.95354ZM23.5589 4.52427L23.1581 5.44043L22.3287 5.07757L22.6075 4.21627L23.5589 4.52427ZM24.7793 5.9255L23.8264 6.22871L23.8254 6.22561L24.7793 5.9255ZM25.5251 12.5926L24.6198 13.0174L24.6178 13.0131L25.5251 12.5926ZM26.8811 14.0617L26.3713 14.922L26.3682 14.9201L26.8811 14.0617ZM29.2768 14.6041H30.2768V15.6041H29.2768V14.6041ZM29.2768 13.022V12.022H30.2768V13.022H29.2768ZM27.2314 5.9933L28.1881 5.70214L28.1901 5.70886L27.2314 5.9933ZM26.1579 4.17397L25.4405 4.87062L25.4355 4.86543L26.1579 4.17397ZM23.5702 23.5086L22.6156 23.8065L22.3498 22.955L23.1657 22.5941L23.5702 23.5086ZM24.0674 25.102L24.3812 26.0515L23.4157 26.3706L23.1128 25.3999L24.0674 25.102ZM26.1579 23.8703L25.4355 23.1788L25.4405 23.1736L26.1579 23.8703ZM27.2314 22.0509L28.1902 22.3354L28.1881 22.3421L27.2314 22.0509ZM27.7174 16.2087L28.6698 16.5135L28.668 16.5191L27.7174 16.2087ZM29.2768 15.0335H30.2768V16.0335H29.2768V15.0335ZM29.2768 13.4402V12.4402H30.2768V13.4402H29.2768ZM26.8811 13.9939L27.3987 14.8495L27.3926 14.8532L27.3863 14.8569L26.8811 13.9939ZM25.5251 15.4629L26.4324 15.8834L26.4304 15.8876L25.5251 15.4629ZM24.9714 21.4407L25.9574 21.6076L25.9561 21.6149L25.9548 21.6223L24.9714 21.4407ZM24.4968 22.7063L23.6488 22.1763L23.6539 22.1683L24.4968 22.7063ZM25.0188 3.26155L24.5103 4.83228L22.6075 4.21627L23.116 2.64554L25.0188 3.26155ZM23.9597 3.60812C24.8469 3.99629 25.4423 4.70069 25.7332 5.6254L23.8254 6.22561C23.6944 5.80936 23.4762 5.57961 23.1581 5.44043L23.9597 3.60812ZM25.7322 5.6223C25.9807 6.40314 26.0957 7.26958 26.0957 8.20815H24.0957C24.0957 7.42909 23.9998 6.77376 23.8264 6.22871L25.7322 5.6223ZM26.0957 8.20815V10.5247H24.0957V8.20815H26.0957ZM26.0957 10.5247C26.0957 11.1575 26.214 11.7009 26.4324 12.1722L24.6178 13.0131C24.2636 12.2489 24.0957 11.4136 24.0957 10.5247H26.0957ZM26.4304 12.1679C26.6262 12.5853 26.9353 12.9291 27.3941 13.2032L26.3682 14.9201C25.5915 14.456 24.9965 13.8204 24.6198 13.0174L26.4304 12.1679ZM27.3909 13.2014C27.7979 13.4425 28.4023 13.6041 29.2768 13.6041V15.6041C28.1775 15.6041 27.1848 15.404 26.3713 14.922L27.3909 13.2014ZM28.2768 14.6041V13.022H30.2768V14.6041H28.2768ZM29.2768 14.022C28.3791 14.022 27.5717 13.6682 27.0859 12.8585L28.8009 11.8295C28.8574 11.9238 28.939 12.022 29.2768 12.022V14.022ZM27.0859 12.8585C26.6889 12.1969 26.5366 11.3911 26.5366 10.5247H28.5366C28.5366 11.1801 28.6554 11.5871 28.8009 11.8295L27.0859 12.8585ZM26.5366 10.5247V8.20815H28.5366V10.5247H26.5366ZM26.5366 8.20815C26.5366 7.50333 26.446 6.86175 26.2728 6.27775L28.1901 5.70886C28.4237 6.49595 28.5366 7.33093 28.5366 8.20815H26.5366ZM26.2748 6.28447C26.1102 5.74367 25.8344 5.27623 25.4405 4.8706L26.8754 3.47734C27.491 4.11132 27.9308 4.85677 28.1881 5.70214L26.2748 6.28447ZM25.4355 4.86543C25.0733 4.48699 24.5348 4.15463 23.7609 3.9054L24.3739 2.00168C25.3779 2.325 26.2331 2.80626 26.8803 3.48251L25.4355 4.86543ZM24.5248 23.2108L25.022 24.8041L23.1128 25.3999L22.6156 23.8065L24.5248 23.2108ZM23.7536 24.1525C24.53 23.8959 25.0713 23.5593 25.4355 23.1788L26.8803 24.5617C26.2351 25.2359 25.3827 25.7205 24.3812 26.0515L23.7536 24.1525ZM25.4405 23.1736C25.8344 22.768 26.1102 22.3006 26.2748 21.7598L28.1881 22.3421C27.9308 23.1875 27.491 23.9329 26.8754 24.5669L25.4405 23.1736ZM26.2728 21.7665C26.446 21.1825 26.5366 20.5409 26.5366 19.8361H28.5366C28.5366 20.7133 28.4237 21.5483 28.1901 22.3354L26.2728 21.7665ZM26.5366 19.8361V17.5308H28.5366V19.8361H26.5366ZM26.5366 17.5308C26.5366 16.9447 26.6049 16.3938 26.7667 15.8983L28.668 16.5191C28.5887 16.7619 28.5366 17.0924 28.5366 17.5308H26.5366ZM26.7649 15.9039C26.933 15.3786 27.2193 14.9058 27.6605 14.5555L28.9042 16.1217C28.8331 16.1782 28.7427 16.2855 28.6698 16.5135L26.7649 15.9039ZM27.6605 14.5555C28.1331 14.1802 28.7005 14.0335 29.2768 14.0335V16.0335C29.0394 16.0335 28.9439 16.0902 28.9042 16.1217L27.6605 14.5555ZM28.2768 15.0335V13.4402H30.2768V15.0335H28.2768ZM29.2768 14.4402C28.4053 14.4402 27.804 14.6044 27.3987 14.8495L26.3635 13.1382C27.1787 12.6451 28.1745 12.4402 29.2768 12.4402V14.4402ZM27.3863 14.8569C26.935 15.121 26.6284 15.4605 26.4324 15.8834L24.6178 15.0424C24.9944 14.2298 25.5917 13.5899 26.376 13.1308L27.3863 14.8569ZM26.4304 15.8876C26.2147 16.3475 26.0957 16.8886 26.0957 17.5308H24.0957C24.0957 16.6362 24.263 15.7987 24.6198 15.0382L26.4304 15.8876ZM26.0957 17.5308V19.8361H24.0957V17.5308H26.0957ZM26.0957 19.8361C26.0957 20.463 26.051 21.0545 25.9574 21.6076L23.9854 21.2738C24.0576 20.8476 24.0957 20.3693 24.0957 19.8361H26.0957ZM25.9548 21.6223C25.8452 22.2156 25.6467 22.7635 25.3397 23.2444L23.6539 22.1683C23.7989 21.941 23.9168 21.6451 23.988 21.2592L25.9548 21.6223ZM25.3448 23.2363C25.0122 23.7684 24.5485 24.1694 23.9747 24.4232L23.1657 22.5941C23.3753 22.5014 23.5293 22.3675 23.6488 22.1763L25.3448 23.2363Z" fill="black"/>
</svg>
