<svg width="140" height="30" viewBox="0 0 140 30" fill="none" xmlns="http://www.w3.org/2000/svg">
<path d="M10.2914 5.71875H15.816C17.0213 5.71875 18.0425 5.92801 18.8796 6.34654C19.7167 6.76507 20.3528 7.38449 20.7881 8.2048C21.2317 9.01674 21.4535 10.0254 21.4535 11.2307C21.4535 12.1431 21.3154 12.9467 21.0392 13.6415C20.7713 14.3362 20.3821 14.9222 19.8715 15.3993C19.3609 15.868 18.7457 16.2321 18.0258 16.4916L17.1343 16.9813H12.4636L12.451 14.4199H15.7407C16.335 14.4199 16.8288 14.2902 17.2222 14.0307C17.6157 13.7712 17.9086 13.4113 18.1011 12.9509C18.302 12.4905 18.4025 11.9674 18.4025 11.3814C18.4025 10.7536 18.3146 10.2095 18.1388 9.74916C17.963 9.28041 17.6868 8.92048 17.3101 8.66936C16.9335 8.40988 16.4354 8.28013 15.816 8.28013H13.3425V24H10.2914V5.71875ZM18.8043 24L15.3263 15.7885L18.5029 15.7759L22.0688 23.8368V24H18.8043ZM29.2005 24.2511C28.3216 24.2511 27.5389 24.1214 26.8525 23.8619C26.1662 23.594 25.5844 23.2006 25.1073 22.6816C24.6302 22.1543 24.266 21.5098 24.0149 20.748C23.7638 19.978 23.6383 19.0865 23.6383 18.0737V16.7679C23.6383 15.6211 23.768 14.6334 24.0275 13.8047C24.2953 12.9676 24.6636 12.2813 25.1324 11.7455C25.6011 11.2098 26.1536 10.8122 26.7898 10.5527C27.4343 10.2932 28.1332 10.1635 28.8866 10.1635C29.7404 10.1635 30.4812 10.3016 31.109 10.5778C31.7367 10.8541 32.2515 11.2684 32.6533 11.8209C33.0635 12.3733 33.3648 13.0555 33.5573 13.8675C33.7582 14.6794 33.8587 15.6127 33.8587 16.6674V18.1364H25.0445V15.9266H30.9708V15.6127C30.9541 14.9933 30.8788 14.4618 30.7448 14.0181C30.6109 13.5661 30.3933 13.2229 30.0919 12.9886C29.799 12.7458 29.393 12.6244 28.874 12.6244C28.4973 12.6244 28.1625 12.6956 27.8696 12.8379C27.5766 12.9802 27.3338 13.2104 27.1413 13.5285C26.9572 13.8465 26.8149 14.2734 26.7144 14.8092C26.614 15.3365 26.5638 15.9894 26.5638 16.7679V18.0737C26.5638 18.7517 26.6223 19.3251 26.7395 19.7938C26.8651 20.2626 27.0492 20.6476 27.292 20.9489C27.5347 21.2419 27.8277 21.4595 28.1709 21.6018C28.5225 21.7358 28.9284 21.8027 29.3888 21.8027C30.0668 21.8027 30.6486 21.6772 31.1341 21.4261C31.6279 21.1666 32.0548 20.8318 32.4148 20.4216L33.708 22.2171C33.4653 22.5435 33.1388 22.8658 32.7287 23.1839C32.3185 23.4936 31.8205 23.7489 31.2345 23.9498C30.6569 24.1507 29.9789 24.2511 29.2005 24.2511ZM42.4971 20.4216C42.4971 20.137 42.4134 19.8859 42.246 19.6682C42.0869 19.4422 41.8274 19.2204 41.4675 19.0028C41.1076 18.7852 40.6263 18.5508 40.0236 18.2997C39.3958 18.0402 38.8391 17.7807 38.3537 17.5212C37.8682 17.2617 37.458 16.9771 37.1232 16.6674C36.7884 16.3493 36.5331 15.9852 36.3573 15.5751C36.1815 15.1649 36.0936 14.6878 36.0936 14.1437C36.0936 13.5829 36.1982 13.0639 36.4075 12.5868C36.6168 12.1097 36.9181 11.6911 37.3115 11.3312C37.7049 10.9629 38.1779 10.6783 38.7303 10.4774C39.2828 10.2681 39.9064 10.1635 40.6011 10.1635C41.5805 10.1635 42.4175 10.3435 43.1123 10.7034C43.8154 11.055 44.3511 11.5488 44.7194 12.185C45.0961 12.8128 45.2845 13.5368 45.2845 14.3571H42.359C42.359 14.014 42.2962 13.7042 42.1706 13.428C42.0451 13.1434 41.8525 12.9174 41.5931 12.75C41.3336 12.5742 41.0029 12.4863 40.6011 12.4863C40.2328 12.4863 39.9231 12.5575 39.672 12.6998C39.4293 12.8337 39.2451 13.0179 39.1196 13.2522C39.0024 13.4782 38.9438 13.7335 38.9438 14.0181C38.9438 14.2274 38.9814 14.4116 39.0568 14.5706C39.1321 14.7296 39.2577 14.8845 39.4335 15.0352C39.6092 15.1775 39.8436 15.3239 40.1366 15.4746C40.4379 15.6253 40.8188 15.7969 41.2792 15.9894C42.1915 16.341 42.9491 16.7051 43.5518 17.0818C44.1544 17.4584 44.6064 17.8979 44.9078 18.4001C45.2091 18.9023 45.3598 19.5259 45.3598 20.2709C45.3598 20.8736 45.2468 21.4177 45.0208 21.9032C44.8032 22.3887 44.4851 22.8072 44.0665 23.1588C43.6564 23.5103 43.1583 23.7824 42.5724 23.9749C41.9948 24.159 41.3503 24.2511 40.6388 24.2511C39.5758 24.2511 38.6759 24.0419 37.9393 23.6233C37.2111 23.1964 36.6586 22.6482 36.2819 21.9785C35.9053 21.3089 35.7169 20.6016 35.7169 19.8566H38.542C38.5671 20.3923 38.6801 20.8108 38.881 21.1122C39.0903 21.4135 39.3539 21.6228 39.672 21.74C39.9901 21.8488 40.3207 21.9032 40.6639 21.9032C41.0741 21.9032 41.4131 21.8488 41.6809 21.74C41.9488 21.6228 42.1497 21.4512 42.2836 21.2252C42.4259 20.9992 42.4971 20.7313 42.4971 20.4216ZM47.4817 17.7598V16.6674C47.4817 15.6127 47.6115 14.6794 47.871 13.8675C48.1304 13.0555 48.4987 12.3775 48.9759 11.8334C49.4614 11.281 50.0306 10.8666 50.6835 10.5904C51.3364 10.3058 52.0562 10.1635 52.8431 10.1635C53.6466 10.1635 54.3749 10.3058 55.0278 10.5904C55.689 10.8666 56.2582 11.281 56.7353 11.8334C57.2208 12.3775 57.5933 13.0555 57.8528 13.8675C58.1123 14.6794 58.242 15.6127 58.242 16.6674V17.7598C58.242 18.8145 58.1123 19.7478 57.8528 20.5597C57.5933 21.3717 57.2208 22.0539 56.7353 22.6063C56.2582 23.1504 55.6932 23.5605 55.0403 23.8368C54.3874 24.113 53.6634 24.2511 52.8682 24.2511C52.0813 24.2511 51.3573 24.113 50.696 23.8368C50.0431 23.5605 49.4739 23.1504 48.9884 22.6063C48.5029 22.0539 48.1304 21.3717 47.871 20.5597C47.6115 19.7478 47.4817 18.8145 47.4817 17.7598ZM50.4072 16.6674V17.7598C50.4072 18.4378 50.4658 19.0321 50.583 19.5427C50.7002 20.0449 50.8676 20.4634 51.0852 20.7983C51.3029 21.1331 51.5624 21.3842 51.8637 21.5516C52.165 21.719 52.4999 21.8027 52.8682 21.8027C53.2783 21.8027 53.6341 21.719 53.9354 21.5516C54.2451 21.3842 54.5004 21.1331 54.7013 20.7983C54.9106 20.4634 55.0654 20.0449 55.1659 19.5427C55.2663 19.0321 55.3165 18.4378 55.3165 17.7598V16.6674C55.3165 15.9978 55.2579 15.4118 55.1408 14.9096C55.0236 14.399 54.8562 13.9763 54.6385 13.6415C54.4209 13.2983 54.1572 13.043 53.8475 12.8756C53.5462 12.7081 53.2114 12.6244 52.8431 12.6244C52.4831 12.6244 52.1525 12.7081 51.8511 12.8756C51.5582 13.043 51.3029 13.2983 51.0852 13.6415C50.8676 13.9763 50.7002 14.399 50.583 14.9096C50.4658 15.4118 50.4072 15.9978 50.4072 16.6674ZM67.4706 20.7983V10.4146H70.3961V24H67.6338L67.4706 20.7983ZM67.8849 17.9607L68.814 17.9355C68.814 18.8479 68.7303 19.6892 68.5629 20.4593C68.3955 21.2294 68.136 21.899 67.7845 22.4682C67.4413 23.029 66.9934 23.4685 66.441 23.7866C65.8969 24.0963 65.244 24.2511 64.4823 24.2511C63.9215 24.2511 63.4067 24.1549 62.9379 23.9623C62.4775 23.7698 62.0799 23.4727 61.7451 23.0709C61.4187 22.6691 61.1634 22.1459 60.9792 21.5014C60.7951 20.8569 60.703 20.0868 60.703 19.1911V10.4146H63.6285V19.2162C63.6285 19.7017 63.6703 20.1077 63.754 20.4342C63.8377 20.7522 63.9549 21.0117 64.1056 21.2126C64.2563 21.4051 64.4237 21.5432 64.6078 21.627C64.8004 21.7023 65.0054 21.74 65.2231 21.74C65.8843 21.74 66.4075 21.5767 66.7925 21.2503C67.186 20.9155 67.4664 20.4634 67.6338 19.8943C67.8012 19.3251 67.8849 18.6805 67.8849 17.9607ZM76.2471 13.0388V24H73.3216V10.4146H76.109L76.2471 13.0388ZM79.5241 10.3267L79.5116 13.2146C79.3442 13.1727 79.1642 13.1476 78.9717 13.1392C78.7875 13.1225 78.6034 13.1141 78.4192 13.1141C78.0174 13.1141 77.6701 13.1853 77.3771 13.3276C77.0841 13.4699 76.8372 13.6749 76.6363 13.9428C76.4354 14.2107 76.2764 14.5329 76.1592 14.9096C76.0504 15.2863 75.9834 15.7132 75.9583 16.1903L75.3305 16.2154C75.3305 15.3616 75.3975 14.5706 75.5314 13.8424C75.6653 13.1057 75.8662 12.4654 76.1341 11.9213C76.4103 11.3689 76.7535 10.9378 77.1636 10.6281C77.5738 10.3184 78.0509 10.1635 78.595 10.1635C78.7457 10.1635 78.9173 10.1802 79.1098 10.2137C79.3023 10.2472 79.4404 10.2849 79.5241 10.3267ZM86.1034 21.8027C86.4801 21.8027 86.8149 21.7232 87.1078 21.5642C87.4092 21.4051 87.6477 21.1582 87.8235 20.8234C87.9993 20.4802 88.0956 20.0366 88.1123 19.4925H90.862C90.8453 20.4551 90.6235 21.2963 90.1966 22.0162C89.7697 22.7277 89.2005 23.2801 88.489 23.6735C87.7859 24.0586 87.0032 24.2511 86.141 24.2511C85.2454 24.2511 84.4628 24.1088 83.7931 23.8242C83.1318 23.5313 82.5836 23.1085 82.1483 22.5561C81.713 22.0036 81.3866 21.334 81.1689 20.5472C80.9597 19.752 80.8551 18.8438 80.8551 17.8225V16.5921C80.8551 15.5792 80.9597 14.6752 81.1689 13.88C81.3866 13.0848 81.713 12.411 82.1483 11.8585C82.5836 11.3061 83.1318 10.8876 83.7931 10.603C84.4544 10.31 85.2328 10.1635 86.1285 10.1635C87.0827 10.1635 87.9072 10.3644 88.602 10.7662C89.3051 11.1596 89.8534 11.7372 90.2468 12.4989C90.6402 13.2606 90.8453 14.1939 90.862 15.2988H88.1123C88.0956 14.7129 88.0077 14.2232 87.8486 13.8298C87.6896 13.428 87.4636 13.1267 87.1706 12.9258C86.886 12.7249 86.5261 12.6244 86.0908 12.6244C85.6137 12.6244 85.2203 12.7165 84.9106 12.9007C84.6092 13.0765 84.3749 13.3359 84.2075 13.6791C84.0484 14.0223 83.9354 14.4408 83.8684 14.9347C83.8099 15.4202 83.7806 15.9727 83.7806 16.5921V17.8225C83.7806 18.4587 83.8099 19.0237 83.8684 19.5176C83.927 20.0031 84.0359 20.4174 84.1949 20.7606C84.3623 21.1038 84.6009 21.3633 84.9106 21.5391C85.2203 21.7148 85.6179 21.8027 86.1034 21.8027ZM98.3327 24.2511C97.4538 24.2511 96.6712 24.1214 95.9848 23.8619C95.2984 23.594 94.7167 23.2006 94.2395 22.6816C93.7624 22.1543 93.3983 21.5098 93.1472 20.748C92.8961 19.978 92.7705 19.0865 92.7705 18.0737V16.7679C92.7705 15.6211 92.9002 14.6334 93.1597 13.8047C93.4276 12.9676 93.7959 12.2813 94.2646 11.7455C94.7334 11.2098 95.2859 10.8122 95.922 10.5527C96.5665 10.2932 97.2655 10.1635 98.0188 10.1635C98.8726 10.1635 99.6134 10.3016 100.241 10.5778C100.869 10.8541 101.384 11.2684 101.786 11.8209C102.196 12.3733 102.497 13.0555 102.69 13.8675C102.89 14.6794 102.991 15.6127 102.991 16.6674V18.1364H94.1768V15.9266H100.103V15.6127C100.086 14.9933 100.011 14.4618 99.8771 14.0181C99.7432 13.5661 99.5255 13.2229 99.2242 12.9886C98.9312 12.7458 98.5252 12.6244 98.0063 12.6244C97.6296 12.6244 97.2948 12.6956 97.0018 12.8379C96.7088 12.9802 96.4661 13.2104 96.2736 13.5285C96.0894 13.8465 95.9471 14.2734 95.8467 14.8092C95.7462 15.3365 95.696 15.9894 95.696 16.7679V18.0737C95.696 18.7517 95.7546 19.3251 95.8718 19.7938C95.9973 20.2626 96.1815 20.6476 96.4242 20.9489C96.667 21.2419 96.96 21.4595 97.3032 21.6018C97.6547 21.7358 98.0607 21.8027 98.5211 21.8027C99.1991 21.8027 99.7808 21.6772 100.266 21.4261C100.76 21.1666 101.187 20.8318 101.547 20.4216L102.84 22.2171C102.598 22.5435 102.271 22.8658 101.861 23.1839C101.451 23.4936 100.953 23.7489 100.367 23.9498C99.7892 24.1507 99.1112 24.2511 98.3327 24.2511ZM109.168 24H106.243V9.12137C106.243 8.10854 106.41 7.25893 106.745 6.57255C107.088 5.87779 107.57 5.35045 108.189 4.99051C108.817 4.63058 109.558 4.45061 110.411 4.45061C110.671 4.45061 110.926 4.47154 111.177 4.51339C111.428 4.54688 111.667 4.60128 111.893 4.67662L111.83 7.06222C111.713 7.02874 111.567 7.00363 111.391 6.98689C111.223 6.97015 111.06 6.96178 110.901 6.96178C110.533 6.96178 110.219 7.04548 109.959 7.21289C109.7 7.3803 109.503 7.62305 109.369 7.94113C109.235 8.25921 109.168 8.65262 109.168 9.12137V24ZM111.378 10.4146V12.6747H104.535V10.4146H111.378ZM120.33 20.7983V10.4146H123.256V24H120.494L120.33 20.7983ZM120.745 17.9607L121.674 17.9355C121.674 18.8479 121.59 19.6892 121.423 20.4593C121.255 21.2294 120.996 21.899 120.644 22.4682C120.301 23.029 119.853 23.4685 119.301 23.7866C118.757 24.0963 118.104 24.2511 117.342 24.2511C116.781 24.2511 116.267 24.1549 115.798 23.9623C115.337 23.7698 114.94 23.4727 114.605 23.0709C114.279 22.6691 114.023 22.1459 113.839 21.5014C113.655 20.8569 113.563 20.0868 113.563 19.1911V10.4146H116.488V19.2162C116.488 19.7017 116.53 20.1077 116.614 20.4342C116.698 20.7522 116.815 21.0117 116.966 21.2126C117.116 21.4051 117.284 21.5432 117.468 21.627C117.66 21.7023 117.865 21.74 118.083 21.74C118.744 21.74 119.267 21.5767 119.652 21.2503C120.046 20.9155 120.326 20.4634 120.494 19.8943C120.661 19.3251 120.745 18.6805 120.745 17.9607ZM129.283 4.71429V24H126.357V4.71429H129.283Z" fill="#A5F3B6"/>
<path d="M6.5918 3.94838L7.15681 5.69364C6.48716 5.98661 6.03516 6.50558 5.80078 7.25056C5.56641 7.98717 5.44922 8.83259 5.44922 9.78683V12.3608C5.44922 13.2062 5.29018 13.9721 4.9721 14.6585C4.65402 15.3365 4.15179 15.8806 3.4654 16.2907C2.78739 16.6925 1.90011 16.8934 0.803571 16.8934V15.1356C1.48996 15.1356 1.98382 14.8845 2.28516 14.3823C2.5865 13.88 2.73717 13.2062 2.73717 12.3608V9.78683C2.73717 8.90792 2.85017 8.08761 3.07617 7.32589C3.31055 6.5558 3.70815 5.88198 4.26897 5.30441C4.8298 4.71847 5.60407 4.26646 6.5918 3.94838ZM7.14425 26.7874L6.5918 28.5578C5.60407 28.2313 4.8298 27.7751 4.26897 27.1892C3.70815 26.6116 3.31055 25.9378 3.07617 25.1677C2.85017 24.406 2.73717 23.5857 2.73717 22.7068V20.1454C2.73717 19.5762 2.6702 19.0865 2.53627 18.6763C2.40234 18.2578 2.19308 17.9355 1.90848 17.7095C1.62388 17.4835 1.25558 17.3705 0.803571 17.3705V15.6002C1.90011 15.6002 2.78739 15.8052 3.4654 16.2154C4.15179 16.6172 4.65402 17.1613 4.9721 17.8477C5.29018 18.5257 5.44922 19.2916 5.44922 20.1454V22.7068C5.44922 23.3513 5.49526 23.9456 5.58733 24.4897C5.68778 25.0338 5.86356 25.5025 6.11468 25.8959C6.36579 26.2977 6.70898 26.5949 7.14425 26.7874Z" fill="#A5F3B6"/>
<path d="M132.694 3.94838L132.129 5.69364C132.799 5.98661 133.251 6.50558 133.485 7.25056C133.719 7.98717 133.837 8.83259 133.837 9.78683V12.3608C133.837 13.2062 133.996 13.9721 134.314 14.6585C134.632 15.3365 135.134 15.8806 135.82 16.2907C136.498 16.6925 137.386 16.8934 138.482 16.8934V15.1356C137.796 15.1356 137.302 14.8845 137.001 14.3823C136.699 13.88 136.549 13.2062 136.549 12.3608V9.78683C136.549 8.90792 136.436 8.08761 136.21 7.32589C135.975 6.5558 135.578 5.88198 135.017 5.30441C134.456 4.71847 133.682 4.26646 132.694 3.94838ZM132.142 26.7874L132.694 28.5578C133.682 28.2313 134.456 27.7751 135.017 27.1892C135.578 26.6116 135.975 25.9378 136.21 25.1677C136.436 24.406 136.549 23.5857 136.549 22.7068V20.1454C136.549 19.5762 136.616 19.0865 136.749 18.6763C136.883 18.2578 137.093 17.9355 137.377 17.7095C137.662 17.4835 138.03 17.3705 138.482 17.3705V15.6002C137.386 15.6002 136.498 15.8052 135.82 16.2154C135.134 16.6172 134.632 17.1613 134.314 17.8477C133.996 18.5257 133.837 19.2916 133.837 20.1454V22.7068C133.837 23.3513 133.791 23.9456 133.698 24.4897C133.598 25.0338 133.422 25.5025 133.171 25.8959C132.92 26.2977 132.577 26.5949 132.142 26.7874Z" fill="#A5F3B6"/>
</svg>
